<?xml version="1.0" standalone="no"?>
<!DOCTYPE svg PUBLIC "-//W3C//DTD SVG 20010904//EN"
 "http://www.w3.org/TR/2001/REC-SVG-20010904/DTD/svg10.dtd">
<svg version="1.0" xmlns="http://www.w3.org/2000/svg"
 width="1200.000000pt" height="675.000000pt" viewBox="0 0 1200.000000 675.000000"
 preserveAspectRatio="xMidYMid meet">

<g transform="translate(0.000000,675.000000) scale(0.100000,-0.100000)"
fill="#000000" stroke="none">
<path d="M0 3375 l0 -3375 6000 0 6000 0 0 3375 0 3375 -6000 0 -6000 0 0
-3375z m2310 475 l0 -320 410 0 410 0 0 320 0 320 105 0 105 0 0 -775 0 -775
-105 0 -105 0 0 365 0 365 -410 0 -410 0 0 -365 0 -365 -105 0 -105 0 0 775 0
775 105 0 105 0 0 -320z m1950 -82 c113 -22 218 -97 257 -183 16 -36 19 -83
23 -428 6 -432 1 -407 78 -407 l42 0 0 -64 c0 -75 -2 -76 -115 -76 -47 0 -81
6 -105 18 -40 20 -80 74 -80 108 0 13 -3 24 -6 24 -3 0 -28 -20 -56 -44 -101
-88 -204 -126 -343 -126 -191 0 -312 85 -352 246 -29 117 3 236 86 321 75 79
123 94 394 128 143 19 198 30 217 43 53 40 61 147 16 215 -11 17 -44 43 -71
57 -44 22 -63 25 -155 25 -124 0 -181 -21 -223 -83 -24 -36 -28 -46 -41 -104
l-6 -28 -92 0 -91 0 7 48 c22 167 132 280 301 311 119 22 202 21 315 -1z
m4415 12 c85 -12 194 -63 248 -117 118 -114 172 -266 171 -478 -1 -298 -126
-509 -342 -575 -77 -24 -221 -27 -298 -6 -153 41 -268 159 -318 325 -9 30 -16
56 -16 58 0 2 45 3 100 3 89 0 100 -2 100 -17 0 -30 46 -116 76 -145 75 -70
218 -92 309 -48 90 43 162 153 180 273 l7 47 -196 0 -196 0 0 80 0 80 196 0
196 0 -7 43 c-27 178 -109 284 -237 307 -64 12 -146 2 -196 -24 -42 -22 -97
-87 -117 -139 l-18 -47 -92 0 -93 0 12 48 c49 185 185 303 380 332 72 11 74
11 151 0z m-3625 -510 l0 -480 205 0 205 0 0 480 0 480 95 0 95 0 0 -480 0
-480 205 0 205 0 0 480 0 480 95 0 95 0 0 -565 0 -565 -700 0 -700 0 0 565 0
565 100 0 100 0 0 -480z m2970 395 l0 -85 -195 0 -195 0 0 -480 0 -480 -100 0
-100 0 0 480 0 480 -192 2 -193 3 -3 83 -3 82 491 0 490 0 0 -85z m2008 3 l-3
-83 -252 -3 -253 -2 0 -480 0 -480 -100 0 -100 0 0 565 0 565 355 0 356 0 -3
-82z"/>
<path d="M4293 3174 c-18 -8 -74 -21 -125 -29 -51 -8 -123 -20 -159 -26 -78
-12 -155 -46 -189 -83 -19 -21 -25 -40 -28 -90 -9 -145 96 -226 258 -197 129
23 238 96 275 183 16 39 23 259 8 257 -5 0 -23 -7 -40 -15z"/>
</g>
</svg>
